PathFileType	4	(X/Y/Z)	C:\Users\Basilio\Documents\Thesis Gigler\squatting_fais\c3dfiles\019\SLS_front_pre2\markers_experimental.trc
DataRate	CameraRate	NumFrames	NumMarkers	Units	OrigDataRate	OrigDataStartFrame	OrigNumFrames
200.000000	200.000000	4	59	mm	200.000000	1467	1677
Frame#	Time	FHD			LBHD			RBHD			C7			T10			CLAV			LSHO			LUUPA			LMUPA			LDUPA			LLEP			LMEP			LRAD			LUL			LRFIN			RSHO			RUPA1			RMUPA			RDUPA			RLEP			RMEP			RRAD			RUL			RUFIN			LASI			RASI			USACR			LSACR			RSACR			LTHI1			LTHI2			LTHI3			LTHI4			LLFC			LTIB1			LTIB2			LTIB3			LTIB4			LLMAL			LMMAL			LHEE			LMT1			LMT2			LMT5			RTHI2			RTHI3			RTHI4			RLFC			RTIB1			RTIB2			RTIB3			RTIB4			RLMAL			RMMAL			RHEE			RMT1			RMT2			RMT5			RTHI			
		X1	Y1	Z1	X2	Y2	Z2	X3	Y3	Z3	X4	Y4	Z4	X5	Y5	Z5	X6	Y6	Z6	X7	Y7	Z7	X8	Y8	Z8	X9	Y9	Z9	X10	Y10	Z10	X11	Y11	Z11	X12	Y12	Z12	X13	Y13	Z13	X14	Y14	Z14	X15	Y15	Z15	X16	Y16	Z16	X17	Y17	Z17	X18	Y18	Z18	X19	Y19	Z19	X20	Y20	Z20	X21	Y21	Z21	X22	Y22	Z22	X23	Y23	Z23	X24	Y24	Z24	X25	Y25	Z25	X26	Y26	Z26	X27	Y27	Z27	X28	Y28	Z28	X29	Y29	Z29	X30	Y30	Z30	X31	Y31	Z31	X32	Y32	Z32	X33	Y33	Z33	X34	Y34	Z34	X35	Y35	Z35	X36	Y36	Z36	X37	Y37	Z37	X38	Y38	Z38	X39	Y39	Z39	X40	Y40	Z40	X41	Y41	Z41	X42	Y42	Z42	X43	Y43	Z43	X44	Y44	Z44	X45	Y45	Z45	X46	Y46	Z46	X47	Y47	Z47	X48	Y48	Z48	X49	Y49	Z49	X50	Y50	Z50	X51	Y51	Z51	X52	Y52	Z52	X53	Y53	Z53	X54	Y54	Z54	X55	Y55	Z55	X56	Y56	Z56	X57	Y57	Z57	X58	Y58	Z58	X59	Y59	Z59	

1468	7.335	-344.4402160644532	1729.09130859375	-649.6626586914064	-471.436492919922	1692.904418945313	-792.5755615234377	-475.0359802246095	1686.727172851563	-652.6619262695314	-492.6461486816407	1507.58203125	-710.1116943359376	-497.1823120117189	1214.838989257813	-704.7475585937501	-351.2021179199219	1480.243774414063	-723.0502319335939	-428.7915039062501	1519.394775390625	-854.871520996094	-309.6967773437501	1470.318603515625	-924.4236450195315	-280.1471862792969	1464.422485351563	-886.2209472656252	-244.9995880126954	1457.854736328125	-934.5877685546877	-182.8611145019532	1415.356689453125	-975.085144042969	-187.0302124023438	1358.203125	-951.5999145507815	64.90248870849611	1420.502319335938	-888.5919189453127	63.24662399291994	1407.708740234375	-953.6126098632815	137.0584259033203	1439.82958984375	-888.2980957031252	-404.5864562988282	1517.621459960938	-589.6246948242189	-293.3164062500001	1416.096313476563	-485.5606079101564	-259.1706542968751	1443.374633789063	-506.5112609863282	-228.2502136230469	1396.057006835938	-478.9400939941407	-151.3411712646485	1386.528076171875	-481.0628356933595	-163.6445617675782	1336.326782226563	-511.8207397460939	80.37493133544923	1429.609741210938	-577.4627685546876	95.5515594482422	1410.066162109375	-511.6628417968751	162.5228576660157	1452.134521484375	-569.6269531250001	-347.6138610839844	1038.896240234375	-843.7264404296877	-315.9861450195313	1006.599792480469	-639.1215209960939	-493.1668701171876	1084.037475585938	-713.0361938476564	-502.0407104492189	1054.881713867188	-742.9902343750001	-490.1838989257814	1050.80859375	-686.8008422851564	-263.8826904296876	857.9378662109377	-941.2974243164065	-179.5206451416016	845.4334106445315	-942.5217895507815	-155.0195007324219	881.282165527344	-922.8543090820315	-149.754638671875	791.6166992187502	-942.4002075195315	-88.51351165771486	724.6196899414064	-926.5722656250002	-33.22969818115235	591.4653930664064	-896.899597167969	-100.8459625244141	552.3118286132814	-938.0144653320315	-61.85607528686525	546.0911865234376	-919.6209716796877	-69.86366271972658	469.0842895507814	-879.5783691406252	-157.4949035644532	350.9982604980469	-887.5864257812502	-124.6796493530274	359.2426147460938	-808.3767700195315	-220.436752319336	338.4118652343751	-824.9875488281252	-18.70284461975098	248.8071594238282	-831.0388183593752	-22.9267578125	249.6418762207032	-868.2275390625002	-80.41587829589845	233.9578552246094	-909.604675292969	-310.0892028808594	754.9744873046876	-590.0065917968751	-285.0899353027344	755.2184448242189	-613.4237670898439	-333.0838317871094	672.6473999023439	-593.2584228515626	-364.3581237792969	512.9737548828126	-634.3997192382814	-317.4705505371094	339.1678771972657	-706.7556762695314	-365.8242187500001	252.0476531982422	-656.8987426757814	-332.7149047851563	254.861801147461	-689.9501953125001	-340.6528320312501	216.1776733398438	-734.1851196289064	-395.244110107422	125.4052886962891	-697.2984008789064	-380.7637023925782	136.0563201904297	-770.3789062500002	-456.3933715820314	105.6554412841797	-749.5294189453126	-257.9047851562501	57.19778060913087	-775.0150146484377	-253.5450134277344	61.30640411376955	-729.5481567382814	-292.8778076171876	49.70527648925783	-674.8027954101564	-351.9132080078126	800.754821777344	-579.2471923828126	
1469	7.34	-344.3119201660157	1729.201782226563	-649.6096801757814	-471.4328613281251	1692.847778320313	-792.716735839844	-474.8754272460939	1686.817993164063	-652.7454223632814	-493.3314819335939	1507.734619140625	-710.4660644531251	-496.6483764648439	1214.81982421875	-704.9484863281251	-351.0168151855469	1480.235595703125	-723.1369628906251	-428.7456054687501	1519.148803710938	-855.1717529296877	-309.9077148437501	1468.65625	-925.5327758789065	-280.3857421875001	1462.433227539063	-887.4234619140627	-246.1138153076172	1454.928588867188	-936.1472778320315	-184.1537780761719	1411.472045898438	-976.5645751953127	-188.1861572265625	1354.063110351563	-952.3410644531252	63.55860519409181	1416.807495117188	-889.4245605468752	61.86864089965822	1402.959350585938	-954.251159667969	135.5871276855469	1436.105346679688	-889.299987792969	-404.2833251953126	1517.27392578125	-589.1730346679689	-294.2546081542969	1413.572143554688	-485.2570800781251	-260.1226806640626	1440.882568359375	-505.6730346679689	-229.6923217773438	1392.4150390625	-480.748260498047	-152.4542236328125	1382.839965820313	-480.0301818847657	-165.0101013183594	1332.96826171875	-511.126190185547	79.06452941894533	1425.478881835938	-576.9559326171876	94.41987609863283	1405.217041015625	-511.225799560547	160.8168029785157	1448.639526367188	-568.7473754882814	-347.1733703613282	1038.795654296875	-843.980407714844	-315.7044982910157	1006.668334960938	-639.3768310546876	-492.742156982422	1084.140991210938	-713.3577270507814	-501.6446228027345	1054.994262695313	-743.3275146484376	-489.7428588867189	1050.945678710938	-687.1031494140626	-263.7295837402344	857.4315185546877	-941.4746704101565	-179.6873474121094	844.6923828125002	-942.6348876953127	-154.8238830566407	880.2757568359377	-922.9545898437502	-149.9022827148438	790.6484375000002	-942.5341796875002	-88.64871215820314	723.2866821289064	-926.7319946289065	-34.54596328735352	589.9020996093751	-897.0447387695315	-102.5017852783203	551.1787109375001	-938.0977783203127	-63.64580535888673	544.9847412109376	-919.5808105468752	-71.84021759033205	467.7490844726564	-879.5302734375002	-160.3359069824219	350.2554016113282	-887.5782470703127	-127.3735275268555	358.3693237304688	-808.1871337890627	-223.1871643066407	338.0308532714844	-824.7231445312502	-22.10363006591797	247.2823791503907	-830.6572265625002	-27.74361419677735	247.9521484375001	-868.625915527344	-84.24586486816408	232.8574676513672	-909.4822998046877	-309.8318176269532	755.0274658203126	-590.1448974609376	-284.8996276855469	755.1972656250001	-613.6710205078126	-332.9607849121094	672.7665405273439	-593.3986816406251	-364.3562316894532	513.0020141601564	-634.5488891601564	-317.3755798339844	339.1943664550782	-706.7761840820314	-365.9082031250001	252.0886840820313	-656.9652099609376	-332.7864074707032	254.8751220703126	-689.8986816406251	-340.7032775878907	216.1846313476563	-734.1864013671876	-395.2556152343751	125.3961944580078	-697.3245849609376	-380.7030029296876	135.8811492919922	-770.7712402343752	-456.2579650878907	105.7447128295899	-749.5582275390626	-257.8819274902344	57.16826248168947	-774.9656982421877	-253.7669219970704	61.01609420776369	-729.5239868164064	-292.8674011230469	49.70151138305665	-674.8091430664064	-351.7364807128907	800.8672485351565	-579.4980468750001	
1470	7.345	-344.2587890625001	1729.4521484375	-649.9364624023439	-471.4503784179689	1692.813598632813	-792.7547607421877	-474.7970581054689	1686.861694335938	-652.8398437500001	-493.1362304687501	1507.671508789063	-710.4949951171876	-496.2395935058595	1214.782958984375	-705.2132568359376	-351.0401306152344	1480.05908203125	-722.9195556640626	-428.579315185547	1518.901245117188	-855.5395507812502	-310.5170898437501	1466.242919921875	-926.3806152343752	-279.9131469726563	1460.131958007813	-888.3936157226565	-245.7374420166016	1452.22314453125	-937.1184082031252	-185.4121704101563	1407.39404296875	-978.132995605469	-189.7077026367188	1350.186279296875	-953.0405273437502	61.68087387084962	1412.800903320313	-890.4197387695315	60.46029281616212	1398.116455078125	-954.9074707031252	134.5899658203125	1432.064697265625	-889.8020019531252	-403.8435668945314	1516.866088867188	-588.7459106445314	-295.1461791992188	1410.994506835938	-484.8351440429689	-260.4257507324219	1438.124755859375	-504.9336547851564	-230.8177642822266	1389.09228515625	-479.6629943847657	-153.7758178710938	1378.681274414063	-478.9189758300782	-166.4020690917969	1329.465087890625	-510.2610778808595	79.04536437988283	1419.783813476563	-572.1210327148439	93.17891693115236	1400.5751953125	-510.7001037597657	158.8114471435547	1444.657104492188	-568.9175415039064	-346.6835937500001	1038.734619140625	-844.2964477539065	-315.3963317871094	1006.6630859375	-639.5947875976564	-492.3715820312501	1084.1962890625	-713.7233276367189	-501.1834106445314	1055.1015625	-743.5794067382814	-489.4396362304689	1051.075927734375	-687.3929443359376	-263.6240234375001	856.9290161132815	-941.6185302734377	-179.7111968994141	843.9124755859377	-942.7571411132815	-154.7101135253907	879.2424316406252	-923.114196777344	-150.1064910888672	789.612243652344	-942.7126464843752	-88.95601654052736	721.8353271484376	-926.8458251953127	-36.10068511962891	588.4472656250001	-897.2315063476565	-103.8805236816407	549.8334350585939	-938.1861572265627	-65.05229949951173	543.3309326171876	-919.6807861328127	-73.8847122192383	466.4296264648439	-879.5144653320315	-163.3439636230469	349.5286254882813	-887.3843383789065	-130.2777709960938	357.4107055664063	-808.0452880859377	-225.9982147216797	337.5859680175782	-824.5567626953127	-25.30761337280274	245.5732116699219	-830.4214477539065	-31.29535102844239	246.3512878417969	-868.5085449218752	-87.58274078369142	231.5073242187501	-909.2839965820315	-309.6195373535157	755.0112915039064	-590.3409423828126	-284.6583251953126	755.2398071289064	-613.9527587890626	-332.7474670410157	672.7862548828126	-593.6281738281251	-364.2958679199219	512.9899291992189	-634.6193237304689	-317.3489074707032	339.1884765625001	-706.7874145507814	-365.9176635742188	252.1595611572266	-656.9849243164064	-332.7023620605469	254.7850799560547	-689.9671020507814	-340.6530456542969	216.1454467773438	-734.1289672851564	-395.2519836425782	125.4187240600586	-697.3193359375001	-380.6245727539063	135.8472442626953	-770.7290039062502	-456.4223022460939	105.6502532958985	-749.5205078125001	-257.8944702148438	57.17065811157228	-774.9702148437502	-253.8065795898438	61.01033782958986	-729.5332031250001	-292.8374633789063	49.66821670532228	-674.7982177734376	-351.4262084960938	800.893981933594	-579.7373657226564	
1471	7.350000000000001	-344.0254516601563	1729.802368164063	-650.3169555664064	-471.4065246582032	1692.72705078125	-792.7690429687502	-474.4731445312501	1686.509155273438	-652.9569702148439	-491.7829589843751	1507.592163085938	-710.0503540039064	-495.912078857422	1214.740234375	-705.4945678710939	-350.5586547851563	1480.290771484375	-723.2130737304689	-428.4243164062501	1518.59716796875	-855.776062011719	-310.9756469726563	1464.01171875	-927.4283447265627	-280.1244201660157	1457.996459960938	-889.4654541015627	-246.0045013427735	1449.01318359375	-938.364929199219	-186.741943359375	1403.209594726563	-979.665222167969	-191.4388580322266	1346.198120117188	-953.9383544921877	60.4115562438965	1408.879638671875	-891.1267700195315	59.29287338256837	1392.979858398438	-955.4927368164065	132.909408569336	1428.014038085938	-891.0035400390627	-403.7058410644532	1516.62060546875	-588.4649658203126	-296.0981445312501	1408.637939453125	-484.4632568359376	-260.7802429199219	1435.314575195313	-503.8808593750001	-232.0177001953126	1385.880981445313	-479.1473083496095	-155.109603881836	1374.528198242188	-477.8253784179689	-168.068832397461	1325.669555664063	-509.5127868652345	77.01182556152345	1416.607666015625	-575.5526733398439	91.99117279052736	1395.509521484375	-510.160614013672	157.2573547363282	1440.077026367188	-568.3875122070314	-346.2518005371094	1038.684814453125	-844.5700683593752	-315.1101989746094	1006.707336425781	-639.8778076171876	-491.9160766601564	1084.275390625	-713.9522094726564	-500.7746887207032	1055.145385742188	-743.9219360351564	-488.942596435547	1051.107055664063	-687.7850952148439	-263.6564025878907	856.4604492187502	-941.7635498046877	-179.6834411621094	842.9914550781252	-942.883972167969	-154.4825897216797	878.1934204101565	-923.2239990234377	-150.290771484375	788.5302734375002	-942.8986816406252	-89.7342987060547	720.5248413085939	-927.183532714844	-37.10800170898438	586.5916748046876	-897.2439575195315	-105.4836196899414	548.4988403320314	-938.2930908203127	-66.60416412353517	541.6441650390626	-919.7976684570315	-76.23457336425783	465.005828857422	-879.4622802734377	-165.9415740966797	348.6013488769532	-887.345153808594	-133.0646667480469	356.4163513183594	-807.9837646484377	-228.9833526611329	337.3017578125001	-824.4912109375002	-28.95529747009278	244.0308532714844	-830.0734863281252	-34.86386489868165	244.6543731689454	-868.2701416015627	-91.04701995849611	230.0413970947266	-908.9624023437502	-309.0579833984376	754.6915283203126	-590.2848510742189	-284.4447326660157	755.2449340820314	-614.1696166992189	-332.5969238281251	672.8767089843751	-593.7924804687501	-364.0765991210938	512.8272094726564	-634.7014770507814	-317.2761230468751	339.2282409667969	-706.7681274414064	-365.8952941894532	252.1878356933594	-656.9777832031251	-332.7428894042969	254.8852233886719	-689.9503784179689	-340.5916137695313	216.1753082275391	-734.1466674804689	-395.2542419433595	125.4362106323242	-697.3169555664064	-380.7414855957032	135.9367065429688	-770.8011474609377	-456.3174743652345	105.6692581176758	-749.4986572265626	-257.9497680664063	57.14465713500978	-774.962341308594	-253.8136901855469	61.02429199218751	-729.5314331054689	-292.9007568359376	49.69643783569337	-674.7190551757814	-351.2687072753907	800.9749145507815	-580.0128173828126	
